HIERARCHY
ROOT Hips
{
	OFFSET 0.000000 0.000000 0.000000
	CHANNELS 6 Xposition Yposition Zposition Zrotation Yrotation Xrotation 
	JOINT LHipJoint
	{
		OFFSET 0.000000 0.000000 0.000000
		CHANNELS 3 Zrotation Yrotation Xrotation
		JOINT LeftUpLeg
		{
			OFFSET 1.363060 -1.794630 0.839290
			CHANNELS 3 Zrotation Yrotation Xrotation
			JOINT LeftLeg
			{
				OFFSET 2.448110 -6.726130 0.000000
				CHANNELS 3 Zrotation Yrotation Xrotation
				JOINT LeftFoot
				{
					OFFSET 2.562200 -7.039590 0.000000
					CHANNELS 3 Zrotation Yrotation Xrotation
					JOINT LeftToeBase
					{
						OFFSET 0.157640 -0.433110 2.322550
						CHANNELS 3 Zrotation Yrotation Xrotation
						End Site
						{
							OFFSET 0.000000 0.000000 0.000000
						}
					}
				}
			}
		}
	}
	JOINT RHipJoint
	{
		OFFSET 0.000000 0.000000 0.000000
		CHANNELS 3 Zrotation Yrotation Xrotation
		JOINT RightUpLeg
		{
			OFFSET -1.305520 -1.794630 0.839290
			CHANNELS 3 Zrotation Yrotation Xrotation
			JOINT RightLeg
			{
				OFFSET -2.542530 -6.985550 0.000000
				CHANNELS 3 Zrotation Yrotation Xrotation
				JOINT RightFoot
				{
					OFFSET -2.568260 -7.056230 0.000000
					CHANNELS 3 Zrotation Yrotation Xrotation
					JOINT RightToeBase
					{
						OFFSET -0.164730 -0.452590 2.363150
						CHANNELS 3 Zrotation Yrotation Xrotation
						End Site
						{
							OFFSET 0.000000 0.000000 0.000000
						}
					}
				}
			}
		}
	}
}
MOTION
Frames: 14
Frame Time: 0.008333
-1.431162 17.080310 -1.131809 36.280848 78.376775 48.385324 -10.815827 3.413938 -2.116043 -6.809433 10.453117 -7.748789 -1.543239 1.855585 29.747472 0.341479 0.054477 7.269249 -0.004101 -0.000000 -75.466900 9.691014 1.167183 -0.704966 11.749280 -11.029209 -31.915108 1.619152 1.549797 -0.441723 -4.425545 -22.000594 1.997720 -6.204299 -0.000000 -1.543300
-1.340252 17.111105 -1.064243 34.814990 78.075480 46.852791 -10.924900 3.395199 -2.192061 -6.292883 10.739470 -8.652721 -1.359248 2.011380 31.755904 0.359031 -0.724041 9.366257 -0.253900 -0.000001 -76.190900 9.662266 1.101346 -0.672597 11.833405 -10.545565 -31.127949 1.583559 1.590421 -0.597462 -4.488308 -22.202582 1.475625 -6.044500 -0.000000 -0.323100
-1.252102 17.140106 -0.993379 33.788898 77.774490 45.756082 -11.016910 3.361693 -2.249779 -5.845436 10.911106 -9.597916 -1.177097 2.153034 33.792628 0.398175 -1.512931 11.495711 -0.569300 -0.000001 -76.258101 9.650421 1.047116 -0.653899 11.884479 -10.172218 -30.285605 1.547589 1.645711 -0.931428 -4.535816 -22.371740 1.030121 174.101000 0.000000 -0.687501
-1.166505 17.166798 -0.919804 33.145458 77.481286 45.041012 -11.092535 3.313495 -2.286965 -5.466550 10.963663 -10.580030 -1.000918 2.279175 35.842985 0.457468 -2.264891 13.589819 -0.931500 -0.000000 -75.574600 9.653466 1.001621 -0.648212 11.907452 -9.913537 -29.409324 1.516152 1.712541 -1.424217 -4.558203 -22.468499 0.681196 174.232901 0.000000 -1.512900
-1.083197 17.190989 -0.844276 32.794182 77.198092 44.621961 -11.154282 3.250957 -2.304457 -5.148339 10.905756 -11.594824 -0.834101 2.389969 37.886712 0.534047 -2.924320 15.592053 -1.309800 -0.000000 -74.269000 9.667668 0.961582 -0.652605 11.909570 -9.755145 -28.515760 1.491919 1.788431 -2.056797 -4.551151 -22.479304 0.448995 174.343900 -0.000000 -2.126300
-1.001908 17.212599 -0.767581 32.633075 76.923162 44.399319 -11.203590 3.175131 -2.305799 -4.879973 10.757962 -12.636878 -0.678903 2.486998 39.910545 0.623299 -3.436149 17.438885 -1.664100 -0.000000 -72.329900 9.689503 0.923988 -0.663335 11.900162 -9.677840 -27.620957 1.476974 1.870642 -2.799059 -4.513840 -22.394783 0.324414 174.438100 -0.000000 -2.581500
-0.922462 17.231813 -0.690538 32.554432 76.648894 44.267708 -11.242489 3.087411 -2.296589 -4.648870 10.549281 -13.698265 -0.536046 2.572546 41.895615 0.721363 -3.744748 19.088700 -1.950200 -0.000000 -69.940400 9.715226 0.886402 -0.675557 11.887452 -9.651080 -26.734031 1.471127 1.957076 -3.622752 -4.450166 -22.225725 0.293742 174.516700 0.000000 -2.901600
-0.844699 17.248895 -0.613854 32.457010 76.363851 44.126492 -11.272409 2.989605 -2.283513 -4.442895 10.313365 -14.769282 -0.405216 2.649291 43.825942 0.824924 -3.804881 20.507480 -2.126100 -0.000000 -67.228799 9.741736 0.847200 -0.684493 11.879035 -9.643109 -25.861039 1.473353 2.045904 -4.497815 -4.366165 -21.987613 0.330007 174.586200 0.000000 -3.135999
-0.768505 17.264192 -0.538066 32.256066 76.053026 43.889986 -11.294236 2.883589 -2.272769 -4.253791 10.081733 -15.835231 -0.285207 2.718984 45.676294 0.933420 -3.576493 21.694920 -2.156500 0.000000 -64.599700 9.767099 0.805656 -0.686071 11.878782 -9.622668 -25.001614 1.481209 2.135549 -5.398780 -4.269281 -21.704059 0.408952 174.650300 0.000000 -3.291800
-0.693841 17.278012 -0.463545 31.891797 75.701076 43.494988 -11.307865 2.771646 -2.270959 -4.074974 9.885377 -16.883403 -0.175228 2.784014 47.437243 1.045108 -3.047827 22.628100 -2.020299 -0.000000 -61.987300 9.790477 0.761920 -0.678354 11.890567 -9.569900 -24.155437 1.493154 2.224523 -6.298184 -4.165381 -21.385918 0.492142 174.721500 0.000000 -3.442200
-0.620731 17.290648 -0.390384 31.337954 75.293804 42.909915 -11.311637 2.655543 -2.281175 -3.905220 9.744432 -17.896412 -0.073873 2.844134 49.086246 1.161352 -2.212727 23.325615 -1.708499 -0.000000 -59.750700 9.807601 0.718707 -0.663893 11.913853 -9.458309 -23.426797 1.506288 2.288704 -6.936537 -4.021374 -21.040622 0.417237 174.803800 -0.000000 -3.577500
-0.549161 17.302254 -0.318526 30.601252 74.830763 42.128139 -11.299875 2.535847 -2.301148 -3.743066 9.670484 -18.857341 0.021524 2.895963 50.612369 1.282018 -1.091877 23.790752 -1.228600 -0.000000 -57.878899 9.793319 0.687757 -0.663864 11.953201 -9.225649 -23.388210 1.517268 2.207119 -6.020941 -3.642749 -20.631409 -0.586217 174.903900 0.000001 -3.716000
-0.479154 17.312927 -0.247740 29.709466 74.284873 41.185218 -11.277997 2.416014 -2.338319 -3.595967 9.672056 -19.761666 0.108063 2.944221 52.005874 1.406981 0.276708 24.024059 -0.603100 -0.000000 -56.337200 9.783061 0.655674 -0.655186 11.997409 -8.950652 -23.314836 1.527855 2.129685 -5.146407 -3.290094 -20.196160 -1.580721 175.028300 0.000000 -3.886199
-0.410747 17.322664 -0.177670 28.713352 73.650195 40.130760 -11.245270 2.297369 -2.391103 -3.469239 9.742949 -20.603498 0.185607 2.988115 53.255815 1.535960 1.841466 24.044734 0.133999 0.000000 -55.159000 9.779204 0.622943 -0.638250 12.039193 -8.638404 -23.202131 1.537435 2.056428 -4.321264 -2.965375 -19.733081 -2.553078 175.175400 -0.000000 -4.054500
